<?xml version="1.0" standalone="no"?><!DOCTYPE svg PUBLIC "-//W3C//DTD SVG 1.1//EN" "http://www.w3.org/Graphics/SVG/1.1/DTD/svg11.dtd"><svg t="1556805428577" class="icon" style="" viewBox="0 0 1024 1024" version="1.1" xmlns="http://www.w3.org/2000/svg" p-id="1620" xmlns:xlink="http://www.w3.org/1999/xlink" width="128" height="128"><defs><style type="text/css"></style></defs><path d="M604.54571416 869.41314248c-35.05628584 0-65.92114248 0.91028584-91.28314248 3.2734292-25.33628584-2.36314248-56.142-3.27342832-91.11085752-3.2734292-100.79485752 0-190.46828584 38.18828584-190.46828584 66.39428584 0 27.02571416 74.49942832 24.00171416 175.0474292 22.9834292 40.40228584-0.40885752 77.72142832-4.58228584 107.95885664-11.24485752 29.74371416 6.28714248 66.04714248 10.21628584 105.26914336 10.60971416 100.47857168 1.01314248 174.92657167 4.01914248 174.9265708-22.81885664 0.00257168-28.00542833-89.61171416-65.92371416-190.33971416-65.92371504z" fill="#FAAF08" p-id="1621"></path><path d="M855.23428584 592.046a2426.31 2426.31 0 0 0-61.76828584-150.54942832c1.03628584-11.97771416 1.57114248-24.14314248 1.57114248-36.45771416C795.03714248 215.58628584 698.07114248 62 513.76914248 62S232.496 215.58628584 232.496 405.03885752c0 11.54057168 0.49114248 22.93714248 1.404 34.1845708-14.48742832 32.19685752-38.35542832 87.45685752-62.604 153.198-38.79514248 105.18171416-40.51028584 200.28342832-27.02571416 207.34971416 9.59657167 5.02971416 44.65028584-31.74685752 78.048-91.26771416 22.07057168 140.25342832 115.308 245.14457168 291.44828584 245.14457168 175.66457168 0 268.86857168-104.328 291.26314248-244.01314248 33.21514248 58.36371416 67.788 94.302 77.32285752 89.334 13.53342832-7.05342832 11.81057168-101.95714248-27.11828584-206.92285752z" fill="#000" p-id="1622"></path><path d="M438.47514248 174.34057167c-27.34971416 0.52971416-48.906 32.75742832-48.14485664 71.98457081s23.54914248 70.59342832 50.89628583 70.06371504c27.34971416-0.52971416 48.906-32.76 48.14485665-71.98457168-0.75857168-39.22457168-23.54657168-70.59342832-50.89628584-70.06371416z m151.15885752 0.72514249c-27.65828584-0.52714248-50.706 30.68228584-51.47485752 69.70628584s21.02914248 71.08971416 48.69257168 71.61942832c27.65828584 0.52714248 50.706-30.68228584 51.47485751-69.70628584s-21.02914248-71.09228584-48.69257167-71.61942832z" fill="#FFFFFF" p-id="1623"></path><path d="M693.55571416 489.66971416C640.08028584 498.968 578.08828584 504.28571416 512 504.28571416c-64.82057167 0-125.68371416-5.12228584-178.45457168-14.09142832-36.522 45.21857168-39.39942832 111.74657167-39.39942832 185.94 0 136.23685752 77.06057168 246.68228584 219.62314248 246.68228583 142.56 0 219.62057168-110.44285752 219.62057168-246.68228583 0-74.484-2.90828584-141.23571416-39.834-186.46457168z" fill="#FFFFFF" p-id="1624"></path><path d="M513.76914248 339.51628584c-95.76 0-173.38628584 19.27285752-173.38628496 34.68857168 0 15.41828584 101.46342832 57.816 173.38628496 57.816s173.38628584-43.42885752 173.38628584-57.816-77.62885752-34.68857167-173.38628584-34.68857168z" fill="#FAAF08" p-id="1625"></path><path d="M793.466 441.49657167c0.03085752-0.34714248 0.03857168-0.69685752 0.06685752-1.04399999-70.40571416 23.30485752-169.71428584 37.82314248-279.76628584 37.82314248-110.35028584 0-209.89542833-14.60057167-280.33457168-38.01342832a2431.99285752 2431.99285752 0 0 0-42.65228584 101.20371416c43.398 14.364 92.05971416 25.87628584 144.46285752 33.96342832v128.9674292s37.10314248 6.90171416 72.13628584 8.35971415c24.81942833 1.03371416 51.16114248-3.21942832 51.16114248-3.21942919v-122.05028496c18.16457168 0.81257167 36.56828584 1.278 55.22914248 1.278 121.04742833 0 232.65514248-17.51914248 322.13314336-47.01857168a2429.18742832 2429.18742832 0 0 0-42.43628584-100.24971417z" fill="#E91F1F" p-id="1626"></path><path d="M454.66485752 223.92028584c-12.04971416 0-21.816 12.64628584-21.816 28.24457168s9.76628584 28.24457167 21.816 28.2445708 21.816-12.64628584 21.816-28.2445708-9.76628584-28.24457167-21.816-28.24457168z m160.56514248 17.95114248s-8.74542832-10.494-30.82114248-7.70914248c-21.744 2.74114248-30.24 15.34628584-31.84714336 16.69371416 0 0-5.21742833 7.16657168-1.548 11.57142832s10.27542832-2.56885752 10.27542832-2.56885664 10.05942832-12.42 23.11714336-12.8494292c13.05771416-0.42685752 20.54828584 5.14028584 20.54828584 5.14028584s6.42085752 4.71085752 10.27285664 0c3.85714248-4.71085752 0.00257168-10.278 0.00257168-10.278z" fill="#000" p-id="1627"></path></svg>